<svg width="80" height="80" viewBox="0 0 80 80" fill="none" xmlns="http://www.w3.org/2000/svg">
<path d="M32.7634 47.6502L51.3651 56.9352C52.0692 57.2865 52.8659 57.4075 53.6426 57.281C54.4192 57.1545 55.1363 56.7869 55.6925 56.2303C56.2486 55.6737 56.6156 54.9562 56.7414 54.1795C56.8673 53.4027 56.7456 52.6061 56.3936 51.9023L47.0967 33.3167L28.4895 23.9972C27.7856 23.6446 26.9887 23.5225 26.2115 23.6482C25.4343 23.7738 24.7165 24.1409 24.1596 24.6973C23.6027 25.2538 23.235 25.9714 23.1087 26.7484C22.9824 27.5255 23.1038 28.3225 23.4558 29.0267L32.7634 47.6502ZM43.3697 37.042L50.2456 50.7881L36.4898 43.9216L29.6061 30.1483L43.3697 37.042Z" fill="#FCFAF8"/>
<path d="M40 77.5C60.7106 77.5 77.5 60.7106 77.5 40C77.5 19.2894 60.7106 2.5 40 2.5C19.2894 2.5 2.5 19.2894 2.5 40C2.5 60.7106 19.2894 77.5 40 77.5ZM7.55516 38.125C8.47953 21.8778 21.3364 8.82437 37.5 7.59469V17.9688H42.5V7.59469C58.6636 8.82437 71.5205 21.8778 72.4448 38.125H62.4955V43.125H72.3498C70.8553 58.7872 58.2469 71.2073 42.5 72.4053V62.9688H37.5V72.4053C21.7531 71.2073 9.14469 58.7872 7.65016 43.125H17.4955V38.125H7.55516Z" fill="#FCFAF8"/>
</svg>
