<svg width="80" height="80" viewBox="0 0 80 80" fill="none" xmlns="http://www.w3.org/2000/svg">
<path d="M74.7602 13.7913L51.5 7.34033L28.1719 13.8558L6.47797 7.75398C6.01311 7.6232 5.52399 7.6011 5.04906 7.6894C4.57413 7.7777 4.12631 7.974 3.74082 8.26287C3.35532 8.55174 3.04263 8.92532 2.82733 9.35424C2.61204 9.78316 2.49999 10.2557 2.5 10.7348V63.5016C2.50236 64.3102 2.76948 65.0961 3.26117 65.7412C3.75285 66.3863 4.44252 66.8556 5.22641 67.0786L28.1666 73.5312L51.5048 67.0129L73.5334 73.1225C73.9979 73.2512 74.4861 73.2717 74.9598 73.1822C75.4336 73.0927 75.88 72.8957 76.2642 72.6066C76.6483 72.3176 76.9598 71.9443 77.1742 71.5159C77.3886 71.0876 77.5001 70.6159 77.5 70.1377V17.3721C77.4979 16.561 77.2294 15.7728 76.735 15.1267C76.2406 14.4805 75.5473 14.0118 74.7602 13.7913ZM25.4688 67.6184L7.5 62.5642V13.1946L25.4688 18.2488V67.6184ZM49.0023 62.5606L30.4688 67.7369V18.3646L49.0023 13.1884V62.5606ZM72.5 67.6872L54.0023 62.5577V13.182L72.5 18.3117V67.6872Z" fill="#FCFAF8"/>
</svg>
