<svg width="80" height="80" viewBox="0 0 80 80" fill="none" xmlns="http://www.w3.org/2000/svg">
<path d="M16.25 5.82031V33.6094C16.8125 35.1562 17.8125 35.8125 19.5156 36.2656C21.2969 36.7188 23.75 36.75 26.375 36.75C29 36.75 31.7812 36.7344 34.4062 37.3125C35.8906 37.6406 37.3281 38.2031 38.5938 39.0625V8.66094C37.4688 7.11406 36.1094 6.52188 34.3281 6.30313C32.4219 6.07031 30.0625 6.38906 27.625 6.74531C25.1719 7.10156 22.6406 7.49687 20.1719 7.19531C18.8125 7.02812 17.4688 6.59062 16.25 5.82031ZM63.75 5.82031C62.5312 6.59062 61.1875 7.02812 59.8281 7.19531C57.3594 7.49687 54.8281 7.10156 52.375 6.74531C49.9375 6.38906 47.5781 6.07031 45.6719 6.30313C43.8906 6.52188 42.5312 7.11406 41.4062 8.66094V39.0625C42.6719 38.2031 44.1094 37.6406 45.5938 37.3125C48.2187 36.7344 51 36.75 53.625 36.75C56.25 36.75 58.7031 36.7188 60.4844 36.2656C62.1875 35.8125 63.1875 35.1562 63.75 33.6094V5.82031ZM20.4375 12.5047H34.4062V15.3172H20.4375V12.5047ZM45.5938 12.5047H59.5625V15.3172H45.5938V12.5047ZM20.4375 19.4531H34.4062V22.2656H20.4375V19.4531ZM45.5938 19.4531H59.5625V22.2656H45.5938V19.4531ZM20.4375 26.7656H34.4062V29.5781H20.4375V26.7656ZM45.5938 26.7656H59.5625V29.5781H45.5938V26.7656ZM15 38.9062C12.2969 38.9062 10.4391 40.0469 9.09844 41.8594C7.75937 43.6562 7.03125 46.2031 7.03125 48.75C7.03125 51.2969 7.75937 53.8438 9.09844 55.6406C10.4391 57.4531 12.2969 58.5938 15 58.5938C18.4375 58.5938 20.5781 57.4844 21.9375 56.4062C23.2812 55.3281 23.7344 54.375 23.7344 54.375L24.125 53.5938H55.875L56.2656 54.375C56.2656 54.375 56.7188 55.3281 58.0625 56.4062C59.4219 57.4844 61.5625 58.5938 65 58.5938C67.7031 58.5938 69.5625 57.4531 70.9062 55.6406C72.2344 53.8438 72.9688 51.2969 72.9688 48.75C72.9688 46.2031 72.2344 43.6562 70.9062 41.8594C69.5625 40.0469 67.7031 38.9062 65 38.9062C61.5625 38.9062 59.4219 40.0156 58.0625 41.0938C56.7188 42.1719 56.2656 43.125 56.2656 43.125L55.875 43.9062H24.125L23.7344 43.125C23.7344 43.125 23.2812 42.1719 21.9375 41.0938C20.5781 40.0156 18.4375 38.9062 15 38.9062ZM15.7188 42.3281C15.8594 42.3281 16.0156 42.3281 16.1719 42.3438C18.2812 42.5312 20.5781 43.7344 23.0625 46.0938H56.9375C59.4219 43.7344 61.7188 42.5312 63.8281 42.3438C66.0469 42.1562 67.9844 43.25 69 44.875C71.0469 48.1406 70.0938 53.2969 65.7812 56.1719L64.2188 53.8281C67.4062 51.7031 67.7031 48.1094 66.625 46.375C66.0781 45.5 65.3594 45.0312 64.0625 45.1562C62.7812 45.2656 60.8438 46.1406 58.5 48.5L58.0781 48.9062H21.9219L21.5 48.5C19.1563 46.1406 17.2188 45.2656 15.9375 45.1562C14.6469 45.0312 13.9219 45.5 13.3797 46.375C12.2984 48.1094 12.6 51.7031 15.7812 53.8281L14.2203 56.1719C9.9 53.2969 8.95156 48.1406 10.9953 44.875C11.8891 43.4531 13.4797 42.4375 15.3578 42.3281H15.7188ZM26.4062 56.4062V76.0938H31.0938V56.4062H26.4062ZM33.9062 56.4062V76.0938H38.5938V56.4062H33.9062ZM41.4062 56.4062V76.0938H46.0938V56.4062H41.4062ZM48.9062 56.4062V76.0938H53.5938V56.4062H48.9062Z" fill="#FCFAF8"/>
</svg>
